<mxfile host="app.diagrams.net" modified="2024-06-29T12:59:39.986Z" agent="Mozilla/5.0 (Windows NT 10.0; Win64; x64) AppleWebKit/537.36 (KHTML, like Gecko) Chrome/126.0.0.0 Safari/537.36" etag="5nO1CEppoQ6K6tM6VDti" version="24.6.4" type="device">
  <diagram name="페이지-1" id="fU1yqRaN0pPZcdT7gJ_c">
    <mxGraphModel dx="2620" dy="975" grid="1" gridSize="10" guides="1" tooltips="1" connect="1" arrows="1" fold="1" page="1" pageScale="1" pageWidth="827" pageHeight="1169" math="0" shadow="0">
      <root>
        <mxCell id="0" />
        <mxCell id="1" parent="0" />
        <mxCell id="7GEg3k8qlnbjV-iKTri0-1" value="비회원" style="shape=umlActor;verticalLabelPosition=bottom;verticalAlign=top;html=1;outlineConnect=0;" vertex="1" parent="1">
          <mxGeometry x="270" y="330" width="30" height="60" as="geometry" />
        </mxCell>
        <mxCell id="7GEg3k8qlnbjV-iKTri0-2" value="회원" style="shape=umlActor;verticalLabelPosition=bottom;verticalAlign=top;html=1;outlineConnect=0;" vertex="1" parent="1">
          <mxGeometry x="220" y="510" width="30" height="60" as="geometry" />
        </mxCell>
        <mxCell id="7GEg3k8qlnbjV-iKTri0-3" value="관리자" style="shape=umlActor;verticalLabelPosition=bottom;verticalAlign=top;html=1;outlineConnect=0;" vertex="1" parent="1">
          <mxGeometry x="120" y="660" width="30" height="60" as="geometry" />
        </mxCell>
        <mxCell id="7GEg3k8qlnbjV-iKTri0-5" value="&amp;lt;&amp;lt;include&amp;gt;&amp;gt;" style="endArrow=open;endSize=12;dashed=1;html=1;rounded=0;" edge="1" parent="1">
          <mxGeometry y="10" width="160" relative="1" as="geometry">
            <mxPoint x="-540" y="450" as="sourcePoint" />
            <mxPoint x="-380" y="450" as="targetPoint" />
            <mxPoint as="offset" />
          </mxGeometry>
        </mxCell>
        <mxCell id="7GEg3k8qlnbjV-iKTri0-6" value="&amp;lt;&amp;lt;extend&amp;gt;&amp;gt;" style="endArrow=open;endSize=12;dashed=1;html=1;rounded=0;" edge="1" parent="1">
          <mxGeometry y="10" width="160" relative="1" as="geometry">
            <mxPoint x="-550" y="505" as="sourcePoint" />
            <mxPoint x="-390" y="505" as="targetPoint" />
            <mxPoint as="offset" />
          </mxGeometry>
        </mxCell>
        <mxCell id="7GEg3k8qlnbjV-iKTri0-8" value="회원가입" style="ellipse;whiteSpace=wrap;html=1;" vertex="1" parent="1">
          <mxGeometry x="330" y="240" width="120" height="80" as="geometry" />
        </mxCell>
        <mxCell id="7GEg3k8qlnbjV-iKTri0-9" value="로그인" style="ellipse;whiteSpace=wrap;html=1;" vertex="1" parent="1">
          <mxGeometry x="-80" y="340" width="120" height="80" as="geometry" />
        </mxCell>
        <mxCell id="7GEg3k8qlnbjV-iKTri0-10" value="" style="endArrow=open;endFill=1;endSize=12;html=1;rounded=0;" edge="1" parent="1" source="7GEg3k8qlnbjV-iKTri0-1" target="7GEg3k8qlnbjV-iKTri0-8">
          <mxGeometry width="160" relative="1" as="geometry">
            <mxPoint x="260" y="450" as="sourcePoint" />
            <mxPoint x="420" y="450" as="targetPoint" />
          </mxGeometry>
        </mxCell>
        <mxCell id="7GEg3k8qlnbjV-iKTri0-11" value="" style="endArrow=open;endFill=1;endSize=12;html=1;rounded=0;" edge="1" parent="1" source="7GEg3k8qlnbjV-iKTri0-74" target="7GEg3k8qlnbjV-iKTri0-9">
          <mxGeometry width="160" relative="1" as="geometry">
            <mxPoint x="310" y="524.17" as="sourcePoint" />
            <mxPoint x="470" y="524.17" as="targetPoint" />
          </mxGeometry>
        </mxCell>
        <mxCell id="7GEg3k8qlnbjV-iKTri0-14" value="정규표현식&lt;div&gt;검사&lt;/div&gt;" style="ellipse;whiteSpace=wrap;html=1;" vertex="1" parent="1">
          <mxGeometry x="430" y="150" width="120" height="80" as="geometry" />
        </mxCell>
        <mxCell id="7GEg3k8qlnbjV-iKTri0-15" value="중복검사" style="ellipse;whiteSpace=wrap;html=1;" vertex="1" parent="1">
          <mxGeometry x="490" y="250" width="120" height="80" as="geometry" />
        </mxCell>
        <mxCell id="7GEg3k8qlnbjV-iKTri0-16" value="&amp;lt;&amp;lt;include&amp;gt;&amp;gt;" style="endArrow=open;endSize=12;dashed=1;html=1;rounded=0;" edge="1" parent="1" source="7GEg3k8qlnbjV-iKTri0-8" target="7GEg3k8qlnbjV-iKTri0-14">
          <mxGeometry y="10" width="160" relative="1" as="geometry">
            <mxPoint x="414" y="219.57999999999998" as="sourcePoint" />
            <mxPoint x="574" y="219.57999999999998" as="targetPoint" />
            <mxPoint as="offset" />
          </mxGeometry>
        </mxCell>
        <mxCell id="7GEg3k8qlnbjV-iKTri0-17" value="&amp;lt;&amp;lt;include&amp;gt;&amp;gt;" style="endArrow=open;endSize=12;dashed=1;html=1;rounded=0;" edge="1" parent="1" source="7GEg3k8qlnbjV-iKTri0-8" target="7GEg3k8qlnbjV-iKTri0-15">
          <mxGeometry y="10" width="160" relative="1" as="geometry">
            <mxPoint x="340" y="190" as="sourcePoint" />
            <mxPoint x="500" y="190" as="targetPoint" />
            <mxPoint as="offset" />
          </mxGeometry>
        </mxCell>
        <mxCell id="7GEg3k8qlnbjV-iKTri0-18" value="댓글 조회" style="ellipse;whiteSpace=wrap;html=1;" vertex="1" parent="1">
          <mxGeometry x="-100" y="640" width="120" height="80" as="geometry" />
        </mxCell>
        <mxCell id="7GEg3k8qlnbjV-iKTri0-19" value="" style="endArrow=open;endFill=1;endSize=12;html=1;rounded=0;" edge="1" parent="1" source="7GEg3k8qlnbjV-iKTri0-74" target="7GEg3k8qlnbjV-iKTri0-18">
          <mxGeometry width="160" relative="1" as="geometry">
            <mxPoint x="400" y="675" as="sourcePoint" />
            <mxPoint x="560" y="675" as="targetPoint" />
          </mxGeometry>
        </mxCell>
        <mxCell id="7GEg3k8qlnbjV-iKTri0-20" value="게시글 조회" style="ellipse;whiteSpace=wrap;html=1;" vertex="1" parent="1">
          <mxGeometry x="-310" y="500" width="120" height="80" as="geometry" />
        </mxCell>
        <mxCell id="7GEg3k8qlnbjV-iKTri0-21" value="게시글 상세조회" style="ellipse;whiteSpace=wrap;html=1;" vertex="1" parent="1">
          <mxGeometry x="-260" y="620" width="120" height="80" as="geometry" />
        </mxCell>
        <mxCell id="7GEg3k8qlnbjV-iKTri0-23" value="" style="endArrow=open;endFill=1;endSize=12;html=1;rounded=0;" edge="1" parent="1" source="7GEg3k8qlnbjV-iKTri0-74" target="7GEg3k8qlnbjV-iKTri0-20">
          <mxGeometry width="160" relative="1" as="geometry">
            <mxPoint x="546" y="592" as="sourcePoint" />
            <mxPoint x="552.3233289110813" y="495.71525367755453" as="targetPoint" />
          </mxGeometry>
        </mxCell>
        <mxCell id="7GEg3k8qlnbjV-iKTri0-28" value="" style="endArrow=open;endFill=1;endSize=12;html=1;rounded=0;" edge="1" parent="1" source="7GEg3k8qlnbjV-iKTri0-2" target="7GEg3k8qlnbjV-iKTri0-50">
          <mxGeometry width="160" relative="1" as="geometry">
            <mxPoint x="310" y="569" as="sourcePoint" />
            <mxPoint x="540.5512024801401" y="749.8611186948267" as="targetPoint" />
          </mxGeometry>
        </mxCell>
        <mxCell id="7GEg3k8qlnbjV-iKTri0-29" value="회원정보수정" style="ellipse;whiteSpace=wrap;html=1;" vertex="1" parent="1">
          <mxGeometry x="570" y="540" width="120" height="80" as="geometry" />
        </mxCell>
        <mxCell id="7GEg3k8qlnbjV-iKTri0-30" value="게시글 삭제" style="ellipse;whiteSpace=wrap;html=1;" vertex="1" parent="1">
          <mxGeometry x="530" y="360" width="120" height="80" as="geometry" />
        </mxCell>
        <mxCell id="7GEg3k8qlnbjV-iKTri0-35" value="아이디 찾기" style="ellipse;whiteSpace=wrap;html=1;" vertex="1" parent="1">
          <mxGeometry x="190" y="220" width="120" height="80" as="geometry" />
        </mxCell>
        <mxCell id="7GEg3k8qlnbjV-iKTri0-36" value="비밀번호 찾기" style="ellipse;whiteSpace=wrap;html=1;" vertex="1" parent="1">
          <mxGeometry x="70" y="290" width="120" height="80" as="geometry" />
        </mxCell>
        <mxCell id="7GEg3k8qlnbjV-iKTri0-37" value="" style="endArrow=open;endFill=1;endSize=12;html=1;rounded=0;" edge="1" parent="1" source="7GEg3k8qlnbjV-iKTri0-1" target="7GEg3k8qlnbjV-iKTri0-36">
          <mxGeometry width="160" relative="1" as="geometry">
            <mxPoint x="310" y="366" as="sourcePoint" />
            <mxPoint x="514" y="314" as="targetPoint" />
          </mxGeometry>
        </mxCell>
        <mxCell id="7GEg3k8qlnbjV-iKTri0-38" value="" style="endArrow=open;endFill=1;endSize=12;html=1;rounded=0;" edge="1" parent="1" source="7GEg3k8qlnbjV-iKTri0-1" target="7GEg3k8qlnbjV-iKTri0-35">
          <mxGeometry width="160" relative="1" as="geometry">
            <mxPoint x="320" y="376" as="sourcePoint" />
            <mxPoint x="524" y="324" as="targetPoint" />
          </mxGeometry>
        </mxCell>
        <mxCell id="7GEg3k8qlnbjV-iKTri0-39" value="이메일 수정" style="ellipse;whiteSpace=wrap;html=1;" vertex="1" parent="1">
          <mxGeometry x="770" y="620" width="120" height="80" as="geometry" />
        </mxCell>
        <mxCell id="7GEg3k8qlnbjV-iKTri0-40" value="휴대폰 번호 수정" style="ellipse;whiteSpace=wrap;html=1;" vertex="1" parent="1">
          <mxGeometry x="760" y="510" width="120" height="80" as="geometry" />
        </mxCell>
        <mxCell id="7GEg3k8qlnbjV-iKTri0-47" value="" style="endArrow=block;endSize=16;endFill=0;html=1;rounded=0;" edge="1" parent="1">
          <mxGeometry width="160" relative="1" as="geometry">
            <mxPoint x="-540" y="550" as="sourcePoint" />
            <mxPoint x="-380" y="550" as="targetPoint" />
          </mxGeometry>
        </mxCell>
        <mxCell id="7GEg3k8qlnbjV-iKTri0-48" value="" style="endArrow=block;endSize=16;endFill=0;html=1;rounded=0;" edge="1" parent="1" source="7GEg3k8qlnbjV-iKTri0-39" target="7GEg3k8qlnbjV-iKTri0-29">
          <mxGeometry width="160" relative="1" as="geometry">
            <mxPoint x="930" y="584" as="sourcePoint" />
            <mxPoint x="1090" y="584" as="targetPoint" />
          </mxGeometry>
        </mxCell>
        <mxCell id="7GEg3k8qlnbjV-iKTri0-49" value="" style="endArrow=block;endSize=16;endFill=0;html=1;rounded=0;" edge="1" parent="1" source="7GEg3k8qlnbjV-iKTri0-40" target="7GEg3k8qlnbjV-iKTri0-29">
          <mxGeometry width="160" relative="1" as="geometry">
            <mxPoint x="897" y="698" as="sourcePoint" />
            <mxPoint x="813" y="752" as="targetPoint" />
          </mxGeometry>
        </mxCell>
        <mxCell id="7GEg3k8qlnbjV-iKTri0-50" value="비밀번호 변경" style="ellipse;whiteSpace=wrap;html=1;" vertex="1" parent="1">
          <mxGeometry x="600" y="650" width="120" height="80" as="geometry" />
        </mxCell>
        <mxCell id="7GEg3k8qlnbjV-iKTri0-62" value="" style="endArrow=open;endFill=1;endSize=12;html=1;rounded=0;" edge="1" parent="1">
          <mxGeometry width="160" relative="1" as="geometry">
            <mxPoint x="-540" y="600" as="sourcePoint" />
            <mxPoint x="-380" y="600" as="targetPoint" />
          </mxGeometry>
        </mxCell>
        <mxCell id="7GEg3k8qlnbjV-iKTri0-63" value="" style="endArrow=open;endFill=1;endSize=12;html=1;rounded=0;" edge="1" parent="1" source="7GEg3k8qlnbjV-iKTri0-2" target="7GEg3k8qlnbjV-iKTri0-29">
          <mxGeometry width="160" relative="1" as="geometry">
            <mxPoint x="60" y="630" as="sourcePoint" />
            <mxPoint x="220" y="630" as="targetPoint" />
          </mxGeometry>
        </mxCell>
        <mxCell id="7GEg3k8qlnbjV-iKTri0-67" value="로그아웃" style="ellipse;whiteSpace=wrap;html=1;" vertex="1" parent="1">
          <mxGeometry x="520" y="740" width="120" height="80" as="geometry" />
        </mxCell>
        <mxCell id="7GEg3k8qlnbjV-iKTri0-68" value="" style="endArrow=open;endFill=1;endSize=12;html=1;rounded=0;" edge="1" parent="1" source="7GEg3k8qlnbjV-iKTri0-2" target="7GEg3k8qlnbjV-iKTri0-67">
          <mxGeometry width="160" relative="1" as="geometry">
            <mxPoint x="60" y="630" as="sourcePoint" />
            <mxPoint x="220" y="630" as="targetPoint" />
          </mxGeometry>
        </mxCell>
        <mxCell id="7GEg3k8qlnbjV-iKTri0-69" value="댓글 삭제" style="ellipse;whiteSpace=wrap;html=1;" vertex="1" parent="1">
          <mxGeometry x="600" y="440" width="120" height="80" as="geometry" />
        </mxCell>
        <mxCell id="7GEg3k8qlnbjV-iKTri0-71" value="" style="endArrow=open;endFill=1;endSize=12;html=1;rounded=0;" edge="1" parent="1" source="7GEg3k8qlnbjV-iKTri0-2" target="7GEg3k8qlnbjV-iKTri0-30">
          <mxGeometry width="160" relative="1" as="geometry">
            <mxPoint x="310" y="558" as="sourcePoint" />
            <mxPoint x="607" y="423" as="targetPoint" />
          </mxGeometry>
        </mxCell>
        <mxCell id="7GEg3k8qlnbjV-iKTri0-72" value="" style="endArrow=open;endFill=1;endSize=12;html=1;rounded=0;" edge="1" parent="1" source="7GEg3k8qlnbjV-iKTri0-2" target="7GEg3k8qlnbjV-iKTri0-69">
          <mxGeometry width="160" relative="1" as="geometry">
            <mxPoint x="310" y="566" as="sourcePoint" />
            <mxPoint x="660" y="591" as="targetPoint" />
          </mxGeometry>
        </mxCell>
        <mxCell id="7GEg3k8qlnbjV-iKTri0-73" value="" style="endArrow=open;endFill=1;endSize=12;html=1;rounded=0;" edge="1" parent="1" source="7GEg3k8qlnbjV-iKTri0-74" target="7GEg3k8qlnbjV-iKTri0-21">
          <mxGeometry width="160" relative="1" as="geometry">
            <mxPoint x="300" y="441.73913043478274" as="sourcePoint" />
            <mxPoint x="584" y="380" as="targetPoint" />
          </mxGeometry>
        </mxCell>
        <mxCell id="7GEg3k8qlnbjV-iKTri0-74" value="홈페이지 이용자" style="shape=umlActor;verticalLabelPosition=bottom;verticalAlign=top;html=1;outlineConnect=0;" vertex="1" parent="1">
          <mxGeometry x="-30" y="510" width="30" height="60" as="geometry" />
        </mxCell>
        <mxCell id="7GEg3k8qlnbjV-iKTri0-75" value="" style="endArrow=block;endSize=16;endFill=0;html=1;rounded=0;" edge="1" parent="1" source="7GEg3k8qlnbjV-iKTri0-1" target="7GEg3k8qlnbjV-iKTri0-74">
          <mxGeometry width="160" relative="1" as="geometry">
            <mxPoint x="-40" y="650" as="sourcePoint" />
            <mxPoint x="120" y="650" as="targetPoint" />
          </mxGeometry>
        </mxCell>
        <mxCell id="7GEg3k8qlnbjV-iKTri0-77" value="" style="endArrow=block;endSize=16;endFill=0;html=1;rounded=0;" edge="1" parent="1" source="7GEg3k8qlnbjV-iKTri0-3" target="7GEg3k8qlnbjV-iKTri0-2">
          <mxGeometry width="160" relative="1" as="geometry">
            <mxPoint x="190" y="564" as="sourcePoint" />
            <mxPoint x="10" y="551" as="targetPoint" />
          </mxGeometry>
        </mxCell>
        <mxCell id="7GEg3k8qlnbjV-iKTri0-78" value="탈퇴여부 수정" style="ellipse;whiteSpace=wrap;html=1;" vertex="1" parent="1">
          <mxGeometry x="100" y="830" width="120" height="80" as="geometry" />
        </mxCell>
        <mxCell id="7GEg3k8qlnbjV-iKTri0-79" value="" style="endArrow=open;endFill=1;endSize=12;html=1;rounded=0;" edge="1" parent="1" source="7GEg3k8qlnbjV-iKTri0-3" target="7GEg3k8qlnbjV-iKTri0-78">
          <mxGeometry width="160" relative="1" as="geometry">
            <mxPoint x="-530" y="610" as="sourcePoint" />
            <mxPoint x="-370" y="610" as="targetPoint" />
          </mxGeometry>
        </mxCell>
        <mxCell id="7GEg3k8qlnbjV-iKTri0-82" value="" style="endArrow=block;endSize=16;endFill=0;html=1;rounded=0;" edge="1" parent="1" source="7GEg3k8qlnbjV-iKTri0-2" target="7GEg3k8qlnbjV-iKTri0-74">
          <mxGeometry width="160" relative="1" as="geometry">
            <mxPoint x="230" y="540" as="sourcePoint" />
            <mxPoint x="370" y="574" as="targetPoint" />
          </mxGeometry>
        </mxCell>
        <mxCell id="7GEg3k8qlnbjV-iKTri0-84" value="관리자 정보 조회" style="ellipse;whiteSpace=wrap;html=1;" vertex="1" parent="1">
          <mxGeometry x="-30" y="880" width="120" height="80" as="geometry" />
        </mxCell>
        <mxCell id="7GEg3k8qlnbjV-iKTri0-85" value="" style="endArrow=open;endFill=1;endSize=12;html=1;rounded=0;" edge="1" parent="1" source="7GEg3k8qlnbjV-iKTri0-3" target="7GEg3k8qlnbjV-iKTri0-84">
          <mxGeometry width="160" relative="1" as="geometry">
            <mxPoint x="-350" y="850" as="sourcePoint" />
            <mxPoint x="-190" y="850" as="targetPoint" />
          </mxGeometry>
        </mxCell>
        <mxCell id="7GEg3k8qlnbjV-iKTri0-86" value="회원 정보 조회" style="ellipse;whiteSpace=wrap;html=1;" vertex="1" parent="1">
          <mxGeometry x="-160" y="800" width="120" height="80" as="geometry" />
        </mxCell>
        <mxCell id="7GEg3k8qlnbjV-iKTri0-87" value="" style="endArrow=open;endFill=1;endSize=12;html=1;rounded=0;" edge="1" parent="1" source="7GEg3k8qlnbjV-iKTri0-3" target="7GEg3k8qlnbjV-iKTri0-86">
          <mxGeometry width="160" relative="1" as="geometry">
            <mxPoint x="-250" y="930" as="sourcePoint" />
            <mxPoint x="-90" y="930" as="targetPoint" />
          </mxGeometry>
        </mxCell>
        <mxCell id="7GEg3k8qlnbjV-iKTri0-88" value="좋아요 등록" style="ellipse;whiteSpace=wrap;html=1;" vertex="1" parent="1">
          <mxGeometry x="450" y="840" width="120" height="80" as="geometry" />
        </mxCell>
        <mxCell id="7GEg3k8qlnbjV-iKTri0-89" value="" style="endArrow=open;endFill=1;endSize=12;html=1;rounded=0;" edge="1" parent="1" source="7GEg3k8qlnbjV-iKTri0-2" target="7GEg3k8qlnbjV-iKTri0-88">
          <mxGeometry width="160" relative="1" as="geometry">
            <mxPoint x="-280" y="850" as="sourcePoint" />
            <mxPoint x="-120" y="850" as="targetPoint" />
          </mxGeometry>
        </mxCell>
        <mxCell id="7GEg3k8qlnbjV-iKTri0-90" value="좋아요 삭제" style="ellipse;whiteSpace=wrap;html=1;" vertex="1" parent="1">
          <mxGeometry x="310" y="870" width="120" height="80" as="geometry" />
        </mxCell>
        <mxCell id="7GEg3k8qlnbjV-iKTri0-91" value="" style="endArrow=open;endFill=1;endSize=12;html=1;rounded=0;" edge="1" parent="1" source="7GEg3k8qlnbjV-iKTri0-2" target="7GEg3k8qlnbjV-iKTri0-90">
          <mxGeometry width="160" relative="1" as="geometry">
            <mxPoint x="240" y="680" as="sourcePoint" />
            <mxPoint x="472" y="976" as="targetPoint" />
          </mxGeometry>
        </mxCell>
        <mxCell id="7GEg3k8qlnbjV-iKTri0-92" value="태그 조회" style="ellipse;whiteSpace=wrap;html=1;" vertex="1" parent="1">
          <mxGeometry x="-220" y="390" width="120" height="80" as="geometry" />
        </mxCell>
        <mxCell id="7GEg3k8qlnbjV-iKTri0-93" value="" style="endArrow=open;endFill=1;endSize=12;html=1;rounded=0;" edge="1" parent="1" source="7GEg3k8qlnbjV-iKTri0-74" target="7GEg3k8qlnbjV-iKTri0-92">
          <mxGeometry width="160" relative="1" as="geometry">
            <mxPoint x="-20" y="550" as="sourcePoint" />
            <mxPoint x="-180" y="553" as="targetPoint" />
          </mxGeometry>
        </mxCell>
      </root>
    </mxGraphModel>
  </diagram>
</mxfile>
